<?xml version="1.0" encoding="utf-8"?>
<!-- Generator: Adobe Illustrator 26.0.3, SVG Export Plug-In . SVG Version: 6.00 Build 0)  -->
<svg version="1.0" id="katman_1" xmlns="http://www.w3.org/2000/svg" xmlns:xlink="http://www.w3.org/1999/xlink" x="0px" y="0px"
	 viewBox="0 0 180 116" style="enable-background:new 0 0 180 116;" xml:space="preserve">
<style type="text/css">
	.st0{clip-path:url(#SVGID_00000006705236849646282310000012300224885180643968_);}
</style>
<g>
	<defs>
		<rect id="SVGID_1_" x="27" y="44" width="125.1" height="28"/>
	</defs>
	<clipPath id="SVGID_00000047036653683103003910000010700588981877819019_">
		<use xlink:href="#SVGID_1_"  style="overflow:visible;"/>
	</clipPath>
	<g style="clip-path:url(#SVGID_00000047036653683103003910000010700588981877819019_);">
		<path d="M44.4,61.2c0,2.8-0.2,4.5-0.8,5.8C43.1,68.1,42,69.3,41,70c-1.5,1-3.4,1.5-5,1.5c-1.1,0-7-0.4-8.1-6.4
			c-0.1-0.5-0.1-1.1-0.2-1.7h5.7c0,0.2,0,0.5,0.1,0.7c0.4,1.7,1.5,2.8,2.8,2.8c1.5,0,2.2-0.8,2.6-1.7c0.3-0.8,0.4-1.7,0.4-2.6V44.5
			h5.3L44.4,61.2L44.4,61.2z"/>
		<path d="M47.1,61.1c0-5,3.7-10.3,10.5-10.3c6.8,0,10.5,5.3,10.5,10.4c0,5.1-3.7,10.4-10.5,10.4C50.8,71.5,47.1,66.2,47.1,61.1
			L47.1,61.1z M51.7,61.2c0,3.4,2.6,6,5.8,6c3.2,0,5.8-2.5,5.8-6s-2.6-6-5.8-6C54.3,55.1,51.7,57.7,51.7,61.2L51.7,61.2z"/>
		<path d="M71,44.5h4.7v6.9v2.4c1.9-2.4,4.7-3,6.5-3c4.6,0,9.8,3.4,9.8,10.3c0,6.6-4.6,10.5-10,10.5c-3.1,0-5.5-1.5-6.5-3.4V71H71
			V44.5z M87.3,61.1c0-3.2-2.5-6-5.9-6c-3.6,0-5.9,2.9-5.9,6c0,3.3,2.3,6.1,5.8,6.1C85.2,67.2,87.3,64.2,87.3,61.1L87.3,61.1z"/>
		<path d="M104.1,70.9h-4.6l-7.3-19.6h4.9l4.7,13.7l4.7-13.7h4.9L104.1,70.9z"/>
		<path d="M113.6,44.5h4.7v4.2h-4.7V44.5z M113.6,51.4h4.7v19.6h-4.7V51.4z"/>
		<path d="M123.5,55h-3.3v-3.6h3.3v-6.8h4.7v6.8h3.4V55h-3.4v16h-4.7V55z"/>
		<path d="M136.3,62.7c0.2,3.1,3,4.9,5.7,4.9c2.3,0,3.8-1,4.7-2.6h4.8c-0.9,2.2-2.3,3.8-4,4.9c-1.6,1.1-3.6,1.7-5.6,1.7
			c-6,0-10.4-4.9-10.4-10.4c0-5.6,4.4-10.5,10.3-10.5c2.9,0,5.5,1.1,7.3,3c2.4,2.5,3.3,5.5,2.9,9L136.3,62.7L136.3,62.7z
			 M147.4,59.1c-0.2-1.8-2.1-4.5-5.6-4.4c-3.5,0-5.4,2.5-5.5,4.4H147.4z"/>
	</g>
</g>
</svg>
